# xmcd
#
# Track frame offsets: 
#        150
#        21557
#        37777
#        54956
#        73312
#        89192
#        106342
#        122347
#        140412
#        158102
#        173295
#        188950
#        205860
#        221364
#        236017
#        254505
#
# Disc length: 3639 seconds
#
# Revision: 5
# Processed by: cddbd v1.5.2PL0 Copyright (c) Steve Scherf et al.
# Submitted via: ExactAudioCopy v0.90b4
#
DISCID=df0e3510
DTITLE=Destiny's Child - #1's
DYEAR=2005
DGENRE=R&B
TTITLE0=Stand Up For Love (2005 World Children's Day Anthem)
TTITLE1=Independent Women Part I
TTITLE2=Survivor
TTITLE3=Soldier (Ft. T.I., Lil Wayne)
TTITLE4=Check On It (Beyoncé Ft. Slim Thug)
TTITLE5=Jumpin', Jumpin'
TTITLE6=Lose My Breath
TTITLE7=Say My Name
TTITLE8=Emotion
TTITLE9=Bug A Boo
TTITLE10=Bootylicious
TTITLE11=Bills, Bills, Bills
TTITLE12=Girl
TTITLE13=No, No, No Part 2 (Ft. Wyclef Jean)
TTITLE14=Cater 2 U
TTITLE15=Feel The Same Way I Do
EXTD=
EXTT0=
EXTT1=
EXTT2=
EXTT3=
EXTT4=
EXTT5=
EXTT6=
EXTT7=
EXTT8=
EXTT9=
EXTT10=
EXTT11=
EXTT12=
EXTT13=
EXTT14=
EXTT15=
PLAYORDER=
